<svg id="Layer_1" data-name="Layer 1" xmlns="http://www.w3.org/2000/svg" viewBox="0 0 512 512"><title>arrow-pointer-outline-glyph</title><path d="M449.87,248.29c.94-7.2-2.19-14.71-8.45-18.46L90.74,3A18.21,18.21,0,0,0,71.66,2.4,19.2,19.2,0,0,0,62,19V420a19.28,19.28,0,0,0,10.32,16.9A18.76,18.76,0,0,0,92,435l99.48-74.45,91,142.65a18.72,18.72,0,0,0,16,8.76,20.06,20.06,0,0,0,9.39-2.5l92.91-53.81a18.9,18.9,0,0,0,8.76-11.89A17.83,17.83,0,0,0,407,429.41L322.24,295.84l114.5-32.22a19,19,0,0,0,13.14-15.33ZM287.51,266.43A19.51,19.51,0,0,0,275,277.69a18.94,18.94,0,0,0,1.56,16.9l87.6,138.27-60.38,35L212.12,323.36a18.66,18.66,0,0,0-12.51-8.45,12.88,12.88,0,0,0-3.45-.31,18.76,18.76,0,0,0-11.26,3.75L99.19,382.49V53.39L386.37,238.9Zm0,0" fill="#583D72"/></svg>